<?xml version="1.0" encoding="utf-8"?>
<!-- Uploaded to: SVG Repo, www.svgrepo.com, Generator: SVG Repo Mixer Tools -->
<svg fill="#000000" height="800px" width="800px" version="1.2" baseProfile="tiny" id="_x31_" xmlns="http://www.w3.org/2000/svg" xmlns:xlink="http://www.w3.org/1999/xlink"
	  viewBox="-63 65 128 128" xml:space="preserve">
<path d="M-37.4,95.7h28.5v34.1h-28.5V95.7z M2.4,95.7h22.8v5.7H2.4V95.7z M2.4,124.2h22.8v5.7H2.4V124.2z M2.4,109.9h22.8v5.7H2.4
	V109.9z M-37.4,138.6h62.5v5.7h-62.5V138.6z M-37.4,166.4h62.5v5.7h-62.5V166.4z M-37.4,152.1h62.5v5.7h-62.5V152.1z M-39,66.6v10.9
	h-12.6v114.2h92.6v-10.9h12.6V66.6H-39z M35.3,186.1H-46V83.1h7h5.7h68.6v91.9v5.7V186.1z M48,175.1h-7V77.4h-74.3v-5.1H48V175.1z"
	/>
</svg>