<?xml version="1.0" encoding="utf-8"?>
<!-- Generator: Adobe Illustrator 27.0.0, SVG Export Plug-In . SVG Version: 6.00 Build 0)  -->
<svg version="1.1" id="layer" xmlns="http://www.w3.org/2000/svg" xmlns:xlink="http://www.w3.org/1999/xlink" x="0px" y="0px"
	 viewBox="0 0 652 652" style="enable-background:new 0 0 652 652;" xml:space="preserve">
<style type="text/css">
	.st0{fill:#179EDB;}
</style>
<path class="st0" d="M617.6,274.1h-13.1c-2.3,0-4.7,2.3-4.7,2.3l-49.6,65.1c-0.9,1.4-2.3,1.4-3.3,0l-46.3-65.1c0,0-1.9-2.3-5.1-2.3
	h-88c-1.4,0-2.8-1.4-2.8-2.8v-21.5c0-3.3-2.3-5.6-5.6-5.6H263.8c-21.1,0.9-30,2.8-39.3,8.4c-8.9,5.1-13.6,11.7-13.6,19.7
	c0,8.4,7,16.8,20.6,24.8c3.7,2.3,16.4,8.4,37.9,18.3c13.6,6.6,21.1,11.7,20.6,16.8c-0.9,8.4-8.4,11.2-26.2,11.2h-81.9
	c-1.9,0-3.7-0.5-3.7-1.9c0-0.9,0.5-1.4,1.4-1.9l0,0c18.3-11.2,24.3-25.7,24.3-39.3c0-25.7-21.1-56.2-105.3-56.2H25.1
	c-3.3,0-5.6,2.3-5.6,5.6v100.2c0,3.3,2.3,5.6,5.6,5.6h73.5c2.8,0,5.6,0,8,0h183.9c16.8,0,30-2.8,39.3-8.4
	c8.9-5.1,13.1-11.7,13.1-19.7c0-8.4-7-16.4-20.6-24.8c-3.3-2.3-16.4-8.4-37.9-18.3c-13.6-6.1-20.6-11.2-20.6-15.4
	c0-8.4,8.9-12.6,26.7-12.6h62.2c1.4,0,2.8,1.4,2.8,2.8v72.5c0,10.8,7,23.4,28.5,23.4h170.8c4.2,0,6.1-2.8,6.1-2.8l58.5-76.8
	C619,275.9,620,274.1,617.6,274.1 M87.4,343.3H69.1c-1.4,0-2.8-1.4-2.8-2.8v-81.9c0-1.4,1.4-2.8,2.8-2.8h18.3
	c44.9,0,68.3,18.3,68.3,43.5C155.7,325.1,131.8,343.3,87.4,343.3 M497.3,343.8h-79c-10.8,0-13.6-3.3-13.6-11.7v-44
	c0-1.4,1.4-2.3,2.8-2.3h45.9c1.4,0,3.3,0.9,4.2,1.9l41.2,53.8C499.2,342.9,498.8,343.8,497.3,343.8"/>
</svg>
