<?xml version="1.0" encoding="iso-8859-1"?>
<!-- Uploaded to: SVG Repo, www.svgrepo.com, Generator: SVG Repo Mixer Tools -->
<svg height="800px" width="800px" version="1.1" id="Layer_1" xmlns="http://www.w3.org/2000/svg" xmlns:xlink="http://www.w3.org/1999/xlink" 
	 viewBox="0 0 511.997 511.997" xml:space="preserve">
<polygon style="fill:#CEE8FA;" points="200.07,398.02 200.07,453.005 224.086,453.005 224.086,497.384 287.912,497.384 
	287.912,453.005 311.928,453.005 311.928,398.02 "/>
<g>
	<path style="fill:#2D527C;" d="M256,0C149.762,0,63.331,86.431,63.331,192.668c0,79.724,48.649,150.496,122.123,179.333v26.017
		v54.986l0,0c0,8.073,6.545,14.616,14.616,14.616h9.401v29.76c0,8.073,6.545,14.616,14.616,14.616h63.824
		c8.071,0,14.616-6.544,14.616-14.616v-29.758h9.401c8.071,0,14.616-6.544,14.616-14.616l0,0V398.02v-36.272
		c0-8.073-6.545-14.616-14.616-14.616c-8.071,0-14.616,6.544-14.616,14.616v21.656h-82.625v-21.656
		c0-6.304-4.043-11.899-10.028-13.878c-67.047-22.167-112.093-84.537-112.093-155.202C92.564,102.55,165.88,29.233,256,29.233
		s163.435,73.317,163.435,163.435c0,47.249-20.448,92.17-56.102,123.243c-6.085,5.303-6.719,14.536-1.416,20.622
		c5.304,6.085,14.536,6.719,20.622,1.415c42.025-36.627,66.128-89.58,66.128-145.281C448.668,86.431,362.236,0,256,0z
		 M297.312,412.636v25.753h-9.401c-8.071,0-14.616,6.544-14.616,14.616l0,0v29.76h-34.591v-29.759l0,0
		c0-8.073-6.545-14.616-14.616-14.616h-9.401v-25.754H297.312z"/>
	<path style="fill:#2D527C;" d="M256,334.662c-75.475,0-136.877-61.404-136.877-136.878S180.527,60.905,256,60.905
		c8.071,0,14.616,6.544,14.616,14.616S264.071,90.138,256,90.138c-59.354,0-107.644,48.29-107.644,107.646
		S196.646,305.429,256,305.429c8.071,0,14.616,6.544,14.616,14.616C270.616,328.118,264.071,334.662,256,334.662z"/>
	<path style="fill:#2D527C;" d="M256,334.662c-8.071,0-14.616-6.544-14.616-14.616v-51.865c0-8.073,6.545-14.616,14.616-14.616
		s14.616,6.544,14.616,14.616v51.865C270.616,328.118,264.071,334.662,256,334.662z"/>
</g>
</svg>