<?xml version="1.0" encoding="utf-8"?>
<!-- Generator: Adobe Illustrator 21.0.0, SVG Export Plug-In . SVG Version: 6.00 Build 0)  -->
<svg version="1.1" id="Layer_1" xmlns="http://www.w3.org/2000/svg" xmlns:xlink="http://www.w3.org/1999/xlink" x="0px" y="0px"
	 viewBox="0 0 512 512" style="enable-background:new 0 0 512 512;" xml:space="preserve">
<g>
	<path d="M19.7,118.2h279.1c0.4,1.1,0.8,2.3,1.3,3.4c4.5,10.6,12,19.6,21.4,26c4.7,3.2,9.9,5.7,15.5,7.4c5.6,1.7,11.5,2.7,17.6,2.7
		c8.1,0,15.9-1.7,23-4.7c10.6-4.5,19.6-12,26-21.4c2.8-4.1,5.1-8.6,6.7-13.4h82c10.9,0,19.7-8.8,19.7-19.7
		c0-10.9-8.8-19.7-19.7-19.7h-82c-0.4-1.1-0.8-2.2-1.3-3.3c-4.5-10.6-12-19.6-21.4-26c-4.7-3.2-9.9-5.7-15.5-7.4
		c-5.6-1.7-11.5-2.7-17.6-2.7c-8.1,0-15.9,1.7-23,4.7c-10.6,4.5-19.6,12-26,21.4c-2.8,4.1-5,8.5-6.7,13.3H19.7
		C8.8,78.8,0,87.6,0,98.5C0,109.3,8.8,118.2,19.7,118.2z M343.5,82.2c1.6-1.1,3.3-1.9,5.1-2.5c1.8-0.6,3.8-0.9,5.9-0.9
		c2.8,0,5.3,0.6,7.7,1.5c3.5,1.5,6.6,4,8.7,7.2c1.1,1.6,1.9,3.3,2.5,5.1c0.4,1.2,0.7,2.6,0.8,3.9c-0.1,0.6-0.1,1.3-0.1,2
		c0,0.6,0,1.2,0.1,1.8c-0.2,2.1-0.7,4-1.4,5.9c-1.5,3.5-4,6.6-7.2,8.7c-1.6,1.1-3.3,1.9-5.1,2.5c-1.8,0.6-3.8,0.9-5.9,0.9
		c-2.8,0-5.3-0.6-7.7-1.5c-3.5-1.5-6.6-4-8.7-7.2c-1.1-1.6-1.9-3.3-2.5-5.1c-0.6-1.8-0.9-3.8-0.9-5.9c0-2.8,0.6-5.3,1.5-7.7
		C337.8,87.4,340.3,84.3,343.5,82.2z"/>
	<path d="M492.3,393.8h-82.1c-0.4-1.1-0.8-2.1-1.2-3.2c-4.5-10.6-12-19.6-21.4-26c-4.7-3.2-9.9-5.7-15.5-7.4
		c-5.6-1.7-11.5-2.7-17.6-2.7c-8.1,0-15.9,1.7-23,4.7c-10.6,4.5-19.6,12-26,21.4c-2.8,4-5,8.5-6.6,13.2H19.7
		C8.8,393.8,0,402.7,0,413.5s8.8,19.7,19.7,19.7h279.1c0.4,1.2,0.9,2.4,1.3,3.5c4.5,10.6,12,19.6,21.4,26c4.7,3.2,9.9,5.7,15.5,7.4
		c5.6,1.7,11.5,2.7,17.6,2.7c8.1,0,15.9-1.7,23-4.7c10.6-4.5,19.6-12,26-21.4c2.8-4.1,5.1-8.7,6.8-13.5h81.9
		c10.9,0,19.7-8.8,19.7-19.7S503.2,393.8,492.3,393.8z M365.6,430c-1.6,1.1-3.3,1.9-5.1,2.5c-1.8,0.6-3.8,0.9-5.9,0.9
		c-2.8,0-5.3-0.6-7.7-1.5c-3.5-1.5-6.6-4-8.7-7.2c-1.1-1.6-1.9-3.3-2.5-5.1c-0.6-1.8-0.9-3.8-0.9-5.9c0-2.8,0.6-5.3,1.5-7.7
		c1.5-3.5,4-6.6,7.2-8.7c1.6-1.1,3.3-1.9,5.1-2.5c1.8-0.6,3.8-0.9,5.9-0.9c2.8,0,5.3,0.6,7.7,1.5c3.5,1.5,6.6,4,8.7,7.2
		c1.1,1.6,1.9,3.3,2.5,5.1c0.4,1.2,0.7,2.5,0.8,3.9c-0.1,0.6-0.1,1.3-0.1,1.9c0,0.7,0,1.3,0.1,2c-0.2,2.1-0.7,4-1.4,5.8
		C371.3,424.8,368.8,427.9,365.6,430z"/>
	<path d="M492.3,236.3h-279c-0.4-1.1-0.8-2.2-1.3-3.3c-4.5-10.6-12-19.6-21.4-26c-4.7-3.2-9.9-5.7-15.5-7.4
		c-5.6-1.7-11.5-2.7-17.6-2.7c-8.1,0-15.9,1.7-23,4.7c-10.6,4.5-19.6,12-26,21.4c-2.8,4.1-5,8.5-6.7,13.3H19.7
		C8.8,236.3,0,245.1,0,256c0,10.9,8.8,19.7,19.7,19.7h82.1c0.4,1.1,0.8,2.3,1.3,3.4c4.5,10.6,12,19.6,21.4,26
		c4.7,3.2,9.9,5.7,15.5,7.4c5.6,1.7,11.5,2.7,17.6,2.7c8.1,0,15.9-1.7,23-4.7c10.6-4.5,19.6-12,26-21.4c2.8-4.1,5.1-8.6,6.7-13.4
		h279c10.9,0,19.7-8.8,19.7-19.7S503.2,236.3,492.3,236.3z M168.6,272.4c-1.6,1.1-3.3,1.9-5.1,2.5c-1.8,0.6-3.8,0.9-5.9,0.9
		c-2.8,0-5.3-0.6-7.7-1.5c-3.5-1.5-6.6-4-8.7-7.2c-1.1-1.6-1.9-3.3-2.5-5.1c-0.5-1.5-0.8-3.1-0.9-4.8c0-0.4,0.1-0.8,0.1-1.2
		c0-0.3,0-0.6,0-0.9c0.1-2.4,0.7-4.6,1.4-6.7c1.5-3.5,4-6.6,7.2-8.7c1.6-1.1,3.3-1.9,5.1-2.5c1.8-0.6,3.8-0.9,5.9-0.9
		c2.8,0,5.3,0.6,7.7,1.5c3.5,1.5,6.6,4,8.7,7.2c1.1,1.6,1.9,3.3,2.5,5.1c0.5,1.5,0.8,3.1,0.9,4.7c0,0.4-0.1,0.8-0.1,1.2
		c0,0.3,0,0.6,0,1c-0.1,2.4-0.7,4.6-1.4,6.7C174.3,267.2,171.8,270.3,168.6,272.4z"/>
</g>
</svg>
