<?xml version="1.0" encoding="iso-8859-1"?>
<!-- Uploaded to: SVG Repo, www.svgrepo.com, Generator: SVG Repo Mixer Tools -->
<svg height="800px" width="800px" version="1.1" id="Layer_1" xmlns="http://www.w3.org/2000/svg" xmlns:xlink="http://www.w3.org/1999/xlink" 
	 viewBox="0 0 392.598 392.598" xml:space="preserve">
<path style="fill:#FFFFFF;" d="M177.584,243.2c-2.392,0-4.784-0.259-7.111-0.646l-21.075,47.321h29.931
	c6.012,0,10.925,4.848,10.925,10.925c0,6.012-4.848,10.925-10.925,10.925h-39.628l-7.37,16.485h19.329
	c6.012,0,10.925,4.848,10.925,10.925c0,6.012-4.848,10.925-10.925,10.925h-29.026l-9.244,20.687h128.646l-57.341-128.129
	C182.368,242.941,180.04,243.2,177.584,243.2z"/>
<polygon style="fill:#56ACE0;" points="140.283,356.202 177.584,272.873 214.82,356.202 "/>
<path style="fill:#194F82;" d="M381.737,370.747H265.826l-60.962-136.469c1.487-1.099,2.909-2.133,4.267-3.426
	c13.834,5.301,28.638,8.145,43.507,8.145l0,0c32.194,0,62.448-12.541,85.204-35.297c4.267-4.267,4.267-11.119,0-15.451
	l-70.012-70.012l49.972-49.972c5.042,2.651,10.667,4.073,16.679,4.073c20.04,0,36.267-16.226,36.267-36.267S354.521,0,334.61,0
	c-20.04,0-36.267,16.226-36.267,36.267c0,6.012,1.487,11.636,4.073,16.679l-49.972,49.972l-70.012-70.012
	c-4.267-4.267-11.119-4.267-15.451,0c-35.491,35.362-45.123,87.919-25.471,133.301c-6.788,8.145-10.925,18.618-10.925,30.061
	c0,15.709,7.758,29.608,19.653,38.077L89.341,370.747H10.925C4.913,370.747,0,375.596,0,381.673s4.848,10.925,10.925,10.925h370.747
	c6.012,0,10.925-4.849,10.925-10.925C392.598,375.596,387.75,370.747,381.737,370.747z M334.545,21.915
	c7.887,0,14.287,6.4,14.287,14.287c0,7.887-6.4,14.287-14.287,14.287c-7.887,0-14.287-6.4-14.287-14.287
	C320.259,28.38,326.659,21.915,334.545,21.915z M113.196,370.747l9.244-20.687h29.026c6.012,0,10.925-4.848,10.925-10.925
	c0-6.012-4.848-10.925-10.925-10.925h-19.329l7.37-16.485h39.628c6.012,0,10.925-4.848,10.925-10.925
	c0-6.012-4.848-10.925-10.925-10.925h-29.931l21.075-47.321c2.327,0.388,4.719,0.646,7.111,0.646s4.784-0.259,7.111-0.646
	l57.341,128.065H113.196V370.747z M314.311,195.556c-17.455,13.964-38.917,21.657-61.673,21.657c-10.537,0-21.01-1.681-30.966-5.042
	c1.745-5.042,2.844-10.343,2.844-15.968c0-25.859-21.01-46.933-46.933-46.933c-6.335,0-12.347,1.228-17.842,3.556
	c-12.218-32.582-6.4-69.172,15.451-96.388L314.311,195.556z M177.584,171.636c13.576,0,24.63,11.055,24.63,24.63
	s-11.055,24.63-24.63,24.63c-13.576,0-24.695-11.055-24.695-24.63S163.943,171.636,177.584,171.636z"/>
<g>
	<path style="fill:#FFC10D;" d="M334.545,50.554c7.887,0,14.287-6.4,14.287-14.287s-6.4-14.287-14.287-14.287
		c-7.887,0-14.287,6.4-14.287,14.287C320.259,44.089,326.659,50.554,334.545,50.554z"/>
	<path style="fill:#FFC10D;" d="M177.584,220.897c13.576,0,24.63-11.055,24.63-24.63s-11.055-24.63-24.63-24.63
		c-13.576,0-24.695,11.055-24.695,24.63S163.943,220.897,177.584,220.897z"/>
</g>
<path style="fill:#56ACE0;" d="M159.677,152.824c5.495-2.263,11.507-3.556,17.842-3.556c25.859,0,46.933,21.01,46.933,46.933
	c0,5.624-1.034,10.99-2.844,15.968c9.956,3.232,20.493,5.042,30.966,5.042c22.691,0,44.218-7.564,61.673-21.657L175.127,56.501
	C153.277,83.782,147.394,120.242,159.677,152.824z"/>
</svg>