<?xml version="1.0" encoding="utf-8"?>
<!-- Generator: Adobe Illustrator 27.0.0, SVG Export Plug-In . SVG Version: 6.00 Build 0)  -->
<svg version="1.1" id="Layer_1" xmlns="http://www.w3.org/2000/svg" xmlns:xlink="http://www.w3.org/1999/xlink" x="0px" y="0px"
	 viewBox="0 0 2763.3 2217.2" style="enable-background:new 0 0 2763.3 2217.2;" xml:space="preserve">
<style type="text/css">
	.st0{fill:url(#SVGID_1_);}
	.st1{fill:url(#SVGID_00000017497569780343281500000003570024470123164857_);}
	.st2{fill:url(#SVGID_00000044894043458506760190000017651811653944240055_);}
	.st3{fill:url(#SVGID_00000142157036726954729530000004571485129563131053_);}
</style>
<g>
	<g>
		<path d="M467.7,1633.6l68.5-35.9v101c0,0,61.6-6.8,61.6,0s0,49.6,0,49.6h-65v191.7c0,0,13.7,47.9,65,17.1v56.5
			c0,0-102.7,44.5-130.1-66.8V1633.6z"/>
		<path d="M842.6,1698.6c-116.4-41.1-179.7,34.2-179.7,34.2l46.2,37.7c15.4-41.1,104.4-23,104.4-23c45.1,13.8,37.7,80,37.7,80
			c-147.2-22.3-191.7,40.5-191.7,40.5c-29.1,54.8,0,101,0,101c32.5,71.9,136.9,53.3,136.9,53.3c140.4-22,109.5-32.8,114.7-32.8
			v-102.7C921.9,1700.9,842.6,1698.6,842.6,1698.6z M853.4,1955.3c-121,34.2-140.4-9-140.4-34.2c0-25.2,18.3-65.7,140.4-45.6V1955.3
			z"/>
		<g>
			<path d="M1135.3,1686.3v59c0,0-81-2.3-86.7,20.5v256.4h-65v-303.2C983.5,1719.1,1008.6,1688.9,1135.3,1686.3z"/>
		</g>
		<g>
			<polygon points="1053.1,1625.6 1198,1625.6 1198,2022.3 1260.4,2022.3 1260.4,1625.6 1404.6,1625.6 1404.6,1560.5 1053.1,1560.5 
							"/>
		</g>
		<rect x="1341.8" y="1691.8" width="62.8" height="330.6"/>
		<path d="M1489,1723.7v300.8h66.2v-246c0,0-10.3-22.8,13.7-25.1c0,0,99.3-34.6,116.4,38.1v233.1h67.3v-239.2c0,0-4.6-18.3,8-22.8
			c0,0,117.5-47.1,119.8,28.9v233.1h67.3v-233.1c0,0-6.8-177.3-229.4-67.7C1718.4,1723.7,1662.4,1640.4,1489,1723.7z"/>
		<path d="M2114.3,1974.7c-47.9-13.7-42.8-88.4-42.8-88.4l113.5,4c25.7-2.9,41.1-13.7,41.1-13.7c85.6-52.5,33.7-139.2,33.7-139.2
			c-68.5-97.6-199.7-26.8-199.7-26.8c-58.8,24.5-46.8,167.5-46.8,167.5c-0.2,166,138.6,146.5,138.6,146.5
			c76.5-2.2,104.7-44.3,104.7-44.3l-36.2-36.2C2185.1,1993.6,2114.3,1974.7,2114.3,1974.7z M2118.3,1747.1
			c83.3-17.1,94.1,37.1,94.1,37.1c3.4,58.2-46.8,54.8-46.8,54.8l-93-0.6C2068.1,1751.1,2118.3,1747.1,2118.3,1747.1z"/>
		<path d="M409.5,1889c0,41.2-15,73.8-45,97.6c-30,23.8-69,35.7-117.2,35.7c-34.6,0-64.6-4.6-89.9-13.7
			c-25.3-9.1-48.6-24.6-69.7-46.2l45.6-45.3c28.7,28.9,67.1,43.4,115.3,43.4c29.5,0,52.5-6.1,68.7-18.2
			c16.3-12.1,24.4-29.2,24.4-51.3c0-20.8-5.9-36.6-17.7-47.2c-10.1-9.3-26.6-15.7-49.4-19.1l-53.2-7.7
			c-36.7-5.1-65.2-17.2-85.5-36.4c-22-20.8-32.9-49.8-32.9-86.7c0-40,13.5-72.2,40.5-96.6c27-24.4,63.8-36.7,110.2-36.7
			c56.6,0,103.2,17.2,140,51.7l-43.7,43.4c-24.5-23.4-57.2-35.1-98.2-35.1c-25.8,0-45.9,6.6-60.5,19.8c-14.6,13.2-21.8,30.2-21.8,51
			c0,17.9,5.7,31.9,17.1,42.1c11.8,10.6,28.7,17.7,50.7,21l51.3,7.7c37.6,6,65.6,17.2,84.2,33.8
			C397.3,1817.6,409.5,1848.6,409.5,1889z"/>
		<path d="M2578.2,1922.9c0,32.4-11.9,57.4-35.7,75.1c-23.8,17.7-54.9,26.5-93.1,26.5c-56.6,0-99.9-15.4-130.1-46.1l40.9-42.3
			c21.2,22.3,50.9,33.4,89.2,33.4c20,0,36.2-3.8,48.9-11.4c12.6-7.6,18.9-18.5,18.9-32.8c0-22.7-13.8-35.3-41.5-37.9l-49.5-4.4
			c-61.1-5.5-91.6-34.9-91.6-88.4c0-30.3,11.1-54.2,33.3-71.6c22.2-17.5,50-26.2,83.3-26.2c50.1,0,88.3,12,114.8,36l-39.1,41
			c-17.9-15.6-43.4-23.3-76.3-23.3c-17.9,0-31.8,3.8-41.5,11.4c-9.8,7.6-14.7,17.5-14.7,29.7c0,21.9,14.3,34.1,42.8,36.6l48.8,4.4
			C2547.4,1838.1,2578.2,1868.2,2578.2,1922.9z"/>
	</g>
	<g>
		
			<linearGradient id="SVGID_1_" gradientUnits="userSpaceOnUse" x1="406.6145" y1="1158.1021" x2="908.9754" y2="384.5341" gradientTransform="matrix(-1.004 4.952654e-03 -4.929475e-03 -0.9993 1676.7434 1262.8019)">
			<stop  offset="0" style="stop-color:#002B53"/>
			<stop  offset="0.7124" style="stop-color:#00B6F0"/>
		</linearGradient>
		<path class="st0" d="M704.4,846.1c0,0-0.3-59.2,113.9-92.7L980,694.3l134.5-46.7l31.3-11c0,0,72.5-24.7,103.1-72.8
			c0,0,13.5-23.6,34.1-80.6l51.9-150.2l-51.5-139.8c0,0-31.6-136.9-109.5-124.1c0,0-18.9,0.9-43.5,20.1L1023,199.1L862.2,364.3
			L751.2,479.5c0,0-48.3,41.8-48.2,77L704.4,846.1z"/>
		
			<linearGradient id="SVGID_00000095322188022410719930000011479667975372146839_" gradientUnits="userSpaceOnUse" x1="2800.3132" y1="2182.1497" x2="3302.4163" y2="1408.9791" gradientTransform="matrix(1.815289e-03 -1 1 1.815289e-03 -264.2849 3425.6475)">
			<stop  offset="0" style="stop-color:#DB1A21"/>
			<stop  offset="0.7124" style="stop-color:#FECE08"/>
		</linearGradient>
		<path style="fill:url(#SVGID_00000095322188022410719930000011479667975372146839_);" d="M1188,68.5c0,0,59.2,0,92,113.9l58,161.5
			l45.9,134.3l10.8,31.2c0,0,24.3,72.4,72.1,103.2c0,0,23.5,13.6,80.4,34.5l150,52.7l140.2-50.4c0,0,136.6-31.4,124.9-108.2
			c0,0,1.8-18.1-19.8-43.4L1833.3,390l-164.2-161.2l-114.6-111.4c0,0-41.5-48.4-76.7-48.5L1188,68.5z"/>
		
			<linearGradient id="SVGID_00000082336068771949626860000013311911300915431562_" gradientUnits="userSpaceOnUse" x1="3413.4285" y1="673.7579" x2="3915.5762" y2="-99.4817" gradientTransform="matrix(-4.193992e-03 1 -1 -4.193992e-03 1432.7291 -2645.8452)">
			<stop  offset="0" style="stop-color:#DB1A21"/>
			<stop  offset="0.7124" style="stop-color:#FECE08"/>
		</linearGradient>
		<path style="fill:url(#SVGID_00000082336068771949626860000013311911300915431562_);" d="M1478.2,1327.4c0,0-59.2-0.2-91.7-114.3
			l-57.6-161.6l-45.5-134.4l-10.7-31.2c0,0-24.1-72.4-71.9-103.4c0,0-23.4-13.7-80.3-34.7l-149.8-53.1l-140.3,50
			c0,0-136.6,31.1-125.2,108c0,0-1.9,18.1,19.7,43.5l108.9,108l163.8,161.6l114.3,111.7c0,0,41.4,48.5,76.6,48.7L1478.2,1327.4z"/>
		
			<linearGradient id="SVGID_00000093898227558785207220000007699369622523438015_" gradientUnits="userSpaceOnUse" x1="1403.2716" y1="1287.4757" x2="1905.4193" y2="514.2361">
			<stop  offset="0" style="stop-color:#002B53"/>
			<stop  offset="0.7124" style="stop-color:#00B6F0"/>
		</linearGradient>
		<path style="fill:url(#SVGID_00000093898227558785207220000007699369622523438015_);" d="M1962.9,551.5c0,0,0,59.2-113.9,92.2
			L1687.6,702l-134.2,46.1l-31.2,10.8c0,0-72.3,24.4-103.1,72.3c0,0-13.6,23.5-34.4,80.5l-52.4,150.1l50.6,140.1
			c0,0,31.6,136.5,108.5,124.7c0,0,18.1,1.8,43.4-19.9l107.6-109.4l160.9-164.5l111.2-114.8c0,0,48.4-41.6,48.4-76.8V551.5z"/>
	</g>
</g>
</svg>
