<?xml version="1.0" encoding="utf-8"?>
<!-- Svg Vector Icons : http://www.onlinewebfonts.com/icon -->
<!DOCTYPE svg PUBLIC "-//W3C//DTD SVG 1.1//EN" "http://www.w3.org/Graphics/SVG/1.1/DTD/svg11.dtd">
<svg version="1.1" xmlns="http://www.w3.org/2000/svg" xmlns:xlink="http://www.w3.org/1999/xlink" x="0px" y="0px" viewBox="0 0 1000 1000" enable-background="new 0 0 1000 1000" xml:space="preserve">
<metadata> Svg Vector Icons : http://www.onlinewebfonts.com/icon </metadata>
<g><g transform="translate(0.000000,512.000000) scale(0.100000,-0.100000)"><path d="M3165.9,4983.6c-126.4-44-224-120.6-304.4-239.3c-82.3-120.6-107.2-222.1-97.6-384.8c19.2-298.7,248.9-532.2,545.6-559c120.6-11.5,526.5,32.5,848.1,91.9c111,19.1,206.8,36.4,216.3,36.4c7.7,0,13.4-118.7,13.4-264.2v-266.1l-197.2-11.5c-214.4-13.4-312.1-38.3-474.8-116.8c-224-111-415.4-333.1-495.8-576.3l-42.1-124.4h-945.7c-823.2,0-955.3-3.8-1005.1-30.6c-111-55.5-113-76.6-113-995.5c0-719.8,3.8-844.3,30.6-897.9C1203.6,521,1197.9,521,2239.3,521h936.2l44-118.7c107.2-296.7,329.3-522.7,626-633.7c103.4-40.2,147.4-42.1,691.1-47.9c379.1-3.8,616.5,1.9,685.4,15.3c337,70.8,656.7,367.6,756.2,706.4l24.9,82.3l201-7.7c162.7-5.7,220.2-15.3,285.3-49.8c126.4-67,227.8-168.5,285.3-287.2l53.6-109.1l9.6-532.2l9.6-534.1l63.2-55.5l61.3-55.5h873c752.4,0,878.8,3.8,928.5,30.6c107.2,55.5,112.9,93.8,112.9,802.2c0,863.4-26.8,1081.7-180,1458.8c-109.1,266.1-247,467.1-480.5,704.5c-277.6,281.4-530.3,444.2-859.6,555.2c-285.2,95.7-379.1,109.1-882.6,118.7l-480.5,9.6l-44.1,124.4c-76.6,222.1-214.4,398.2-411.6,526.5c-155.1,99.5-325.5,149.3-560.9,162.7l-197.2,11.5v266.1c0,145.5,7.7,264.2,17.2,264.2s84.2-13.4,166.6-26.8c325.4-61.3,601.1-93.8,792.6-95.7c172.3-1.9,214.4,3.8,296.7,42.1c258.4,118.7,407.8,402,354.2,670.1c-55.5,269.9-271.9,467.1-543.7,495.9c-155.1,15.3-882.6-80.4-1169.7-155.1c-86.2-23-120.6-19.1-363.8,28.7c-308.2,63.2-827.1,132.1-972.5,132.1C3311.4,5018.1,3221.5,5002.8,3165.9,4983.6z M3841.7,4558.6c147.4-21.1,367.6-59.4,488.2-86.2c271.9-57.4,268-57.4,526.5,1.9c269.9,59.4,725.6,126.4,905.5,130.2c136,3.8,141.7,1.9,197.2-59.3c97.7-109.1,65.1-264.2-68.9-321.6c-47.9-19.1-99.6-21.1-233.6-7.7c-338.9,34.5-771.5,109.1-957.2,162.7c-93.8,26.8-111,26.8-248.9-7.7c-212.5-53.6-532.2-109.1-834.7-145.5c-300.6-34.5-369.5-21.1-423.1,84.2c-38.3,72.8-38.3,122.5,0,195.3C3254,4625.6,3319.1,4631.4,3841.7,4558.6z M5264.2,2917.9c126.4-67,227.8-168.5,285.3-287.2l53.6-109.1v-976.4V568.8L5538,448.2c-72.8-134-132.1-191.4-277.6-268l-97.6-51.7H4598c-553.3,0-566.7,0-666.2,45.9c-128.3,57.4-277.6,218.3-317.8,342.7c-26.8,80.4-30.6,222.1-30.6,1045.3v953.4l45.9,103.4c61.3,132.1,195.3,262.3,323.5,312.1c93.8,36.4,135.9,38.3,664.3,34.5C5164.6,2961.9,5183.8,2960,5264.2,2917.9z M3162.1,1554.8V942.2h-813.7h-813.6v612.6v612.6h813.6h813.7V1554.8z M6847.5,2146.4c744.7-91.9,1355.4-616.5,1562.2-1349.7c40.2-141.7,44-197.2,51.7-827l5.7-673.9l-608.8,3.8l-608.8,5.7l-9.6,421.2c-9.6,384.8-15.3,430.7-55.5,536c-88,220.2-222.1,388.6-411.6,511.2c-151.2,97.6-325.4,149.3-551.4,162.7l-187.6,11.5v610.7v608.8h321.6C6531.6,2167.4,6753.7,2157.9,6847.5,2146.4z"/><path d="M7762.6-1948.7c-118.7-47.9-700.7-1054.9-848.1-1464.6c-143.6-407.8-67-763.9,229.7-1064.4c493.9-499.7,1324.8-359.9,1627.3,271.8c143.6,302.5,141.7,516.9-9.6,901.7c-158.9,398.2-696.9,1301.8-806,1351.6C7900.4-1925.7,7821.9-1925.7,7762.6-1948.7z M8007.6-2737.4c181.9-304.4,365.7-664.3,419.3-827.1c134-407.8-141.7-800.2-562.9-804.1c-304.4-1.9-545.6,201-606.9,509.3c-24.9,122.5,0,231.6,109.1,482.4c93.8,214.4,467.1,873,494,873C7864.1-2503.9,7929.1-2609.2,8007.6-2737.4z"/></g></g>
</svg>